<mxfile host="Electron" modified="2023-12-11T20:55:18.377Z" agent="Mozilla/5.0 (Macintosh; Intel Mac OS X 10_15_7) AppleWebKit/537.36 (KHTML, like Gecko) draw.io/22.1.2 Chrome/114.0.5735.289 Electron/25.9.4 Safari/537.36" etag="AwpXDh9Okt4QPqhPYeS-" version="22.1.2" type="device" pages="2">
  <diagram name="Page-1" id="BBq17ygAngS4HO75WDEs">
    <mxGraphModel dx="1004" dy="709" grid="1" gridSize="10" guides="1" tooltips="1" connect="1" arrows="1" fold="1" page="1" pageScale="1" pageWidth="850" pageHeight="1100" math="0" shadow="0">
      <root>
        <mxCell id="0" />
        <mxCell id="1" parent="0" />
        <mxCell id="hUOiWNm01Zd8j-rzL-XV-1" value="User" style="swimlane;fontStyle=1;align=center;verticalAlign=top;childLayout=stackLayout;horizontal=1;startSize=26;horizontalStack=0;resizeParent=1;resizeParentMax=0;resizeLast=0;collapsible=1;marginBottom=0;whiteSpace=wrap;html=1;" parent="1" vertex="1">
          <mxGeometry x="390" y="260" width="160" height="370" as="geometry" />
        </mxCell>
        <mxCell id="hUOiWNm01Zd8j-rzL-XV-2" value="- userID&lt;br&gt;- userFullName&lt;br&gt;- userAge&lt;br&gt;- userGender&lt;br&gt;- userAddress&lt;br&gt;- userPhoneNumber&lt;br&gt;- userOrderHistory&lt;br&gt;- userCoupons" style="text;strokeColor=none;fillColor=none;align=left;verticalAlign=top;spacingLeft=4;spacingRight=4;overflow=hidden;rotatable=0;points=[[0,0.5],[1,0.5]];portConstraint=eastwest;whiteSpace=wrap;html=1;" parent="hUOiWNm01Zd8j-rzL-XV-1" vertex="1">
          <mxGeometry y="26" width="160" height="124" as="geometry" />
        </mxCell>
        <mxCell id="hUOiWNm01Zd8j-rzL-XV-3" value="" style="line;strokeWidth=1;fillColor=none;align=left;verticalAlign=middle;spacingTop=-1;spacingLeft=3;spacingRight=3;rotatable=0;labelPosition=right;points=[];portConstraint=eastwest;strokeColor=inherit;" parent="hUOiWNm01Zd8j-rzL-XV-1" vertex="1">
          <mxGeometry y="150" width="160" height="8" as="geometry" />
        </mxCell>
        <mxCell id="hUOiWNm01Zd8j-rzL-XV-4" value="+ createUser()&lt;br&gt;+ generateUserID()&lt;br&gt;+ getUserID&lt;br&gt;+ getUserFullName&lt;br&gt;+ getUserAge&lt;br&gt;+ getUserGender&lt;br&gt;+ getUserAddress&lt;br&gt;+ getUserPhoneNumber&lt;br&gt;+ getUserOrderHistory&lt;br&gt;+ getUserCoupons&lt;br&gt;+ setUser()&lt;br&gt;+ assignUserToOrderID()&lt;br&gt;+ deleteUser()&lt;br&gt;+ toString()" style="text;strokeColor=none;fillColor=none;align=left;verticalAlign=top;spacingLeft=4;spacingRight=4;overflow=hidden;rotatable=0;points=[[0,0.5],[1,0.5]];portConstraint=eastwest;whiteSpace=wrap;html=1;" parent="hUOiWNm01Zd8j-rzL-XV-1" vertex="1">
          <mxGeometry y="158" width="160" height="212" as="geometry" />
        </mxCell>
        <mxCell id="hUOiWNm01Zd8j-rzL-XV-5" value="Order" style="swimlane;fontStyle=1;align=center;verticalAlign=top;childLayout=stackLayout;horizontal=1;startSize=26;horizontalStack=0;resizeParent=1;resizeParentMax=0;resizeLast=0;collapsible=1;marginBottom=0;whiteSpace=wrap;html=1;" parent="1" vertex="1">
          <mxGeometry x="660" y="490" width="160" height="390" as="geometry" />
        </mxCell>
        <mxCell id="hUOiWNm01Zd8j-rzL-XV-6" value="- orderID&lt;br&gt;- orderTime&lt;br&gt;- orderFoodService&lt;br&gt;- orderDeliveryService&lt;br&gt;- orderDriver&lt;br&gt;- orderUser&lt;br&gt;- orderContents&lt;br&gt;- isOrderReady&lt;br&gt;- isOrderPickedUp&lt;br&gt;- isOrderDelivered" style="text;strokeColor=none;fillColor=none;align=left;verticalAlign=top;spacingLeft=4;spacingRight=4;overflow=hidden;rotatable=0;points=[[0,0.5],[1,0.5]];portConstraint=eastwest;whiteSpace=wrap;html=1;" parent="hUOiWNm01Zd8j-rzL-XV-5" vertex="1">
          <mxGeometry y="26" width="160" height="154" as="geometry" />
        </mxCell>
        <mxCell id="hUOiWNm01Zd8j-rzL-XV-7" value="" style="line;strokeWidth=1;fillColor=none;align=left;verticalAlign=middle;spacingTop=-1;spacingLeft=3;spacingRight=3;rotatable=0;labelPosition=right;points=[];portConstraint=eastwest;strokeColor=inherit;" parent="hUOiWNm01Zd8j-rzL-XV-5" vertex="1">
          <mxGeometry y="180" width="160" height="8" as="geometry" />
        </mxCell>
        <mxCell id="hUOiWNm01Zd8j-rzL-XV-8" value="+ createOrder()&lt;br&gt;+ generateOrderID()&lt;br&gt;+ getOrderID()&lt;br&gt;+ getOrderFoodService()&lt;br&gt;+ getOrderDeliveryService()&lt;br&gt;+ getOrderDriver()&lt;br&gt;+ getOrderUser()&lt;br&gt;+ getOrderContents()&lt;br&gt;+ setOrder()&lt;br&gt;+ checkOrderStatus()&lt;br&gt;+ saveOrderToHistory()&lt;br&gt;+ deleteOrder()&lt;br&gt;+ toString()" style="text;strokeColor=none;fillColor=none;align=left;verticalAlign=top;spacingLeft=4;spacingRight=4;overflow=hidden;rotatable=0;points=[[0,0.5],[1,0.5]];portConstraint=eastwest;whiteSpace=wrap;html=1;" parent="hUOiWNm01Zd8j-rzL-XV-5" vertex="1">
          <mxGeometry y="188" width="160" height="202" as="geometry" />
        </mxCell>
        <mxCell id="hUOiWNm01Zd8j-rzL-XV-9" value="" style="text;strokeColor=none;fillColor=none;align=left;verticalAlign=middle;spacingTop=-1;spacingLeft=4;spacingRight=4;rotatable=0;labelPosition=right;points=[];portConstraint=eastwest;" parent="1" vertex="1">
          <mxGeometry x="470" y="506" width="20" height="14" as="geometry" />
        </mxCell>
        <mxCell id="hUOiWNm01Zd8j-rzL-XV-14" value="Account" style="swimlane;fontStyle=1;align=center;verticalAlign=top;childLayout=stackLayout;horizontal=1;startSize=26;horizontalStack=0;resizeParent=1;resizeParentMax=0;resizeLast=0;collapsible=1;marginBottom=0;whiteSpace=wrap;html=1;" parent="1" vertex="1">
          <mxGeometry x="90" y="140" width="190" height="310" as="geometry" />
        </mxCell>
        <mxCell id="hUOiWNm01Zd8j-rzL-XV-15" value="- accountUsername&lt;br&gt;- accountBirthDate&lt;br&gt;- accountEmail&lt;br&gt;- accountSubscription&lt;br&gt;- paymentCardNumber" style="text;strokeColor=none;fillColor=none;align=left;verticalAlign=top;spacingLeft=4;spacingRight=4;overflow=hidden;rotatable=0;points=[[0,0.5],[1,0.5]];portConstraint=eastwest;whiteSpace=wrap;html=1;" parent="hUOiWNm01Zd8j-rzL-XV-14" vertex="1">
          <mxGeometry y="26" width="190" height="84" as="geometry" />
        </mxCell>
        <mxCell id="hUOiWNm01Zd8j-rzL-XV-16" value="" style="line;strokeWidth=1;fillColor=none;align=left;verticalAlign=middle;spacingTop=-1;spacingLeft=3;spacingRight=3;rotatable=0;labelPosition=right;points=[];portConstraint=eastwest;strokeColor=inherit;" parent="hUOiWNm01Zd8j-rzL-XV-14" vertex="1">
          <mxGeometry y="110" width="190" height="8" as="geometry" />
        </mxCell>
        <mxCell id="hUOiWNm01Zd8j-rzL-XV-17" value="+ createAccount()&lt;br&gt;+ getAccountUsername()&lt;br&gt;+ getAccountBirthDate()&lt;br&gt;+ getAccountEmail()&lt;br&gt;+ getAccountSupervisionStatus()&lt;br&gt;+ getPaymentCardNumber()&lt;br&gt;+ setAccount()&lt;br&gt;+ editAccount()&lt;br&gt;+ isAccountSupervised()&lt;br&gt;+ isAccountEmailVerified()&lt;br&gt;+ deleteAccount()&lt;br&gt;+ toString()" style="text;strokeColor=none;fillColor=none;align=left;verticalAlign=top;spacingLeft=4;spacingRight=4;overflow=hidden;rotatable=0;points=[[0,0.5],[1,0.5]];portConstraint=eastwest;whiteSpace=wrap;html=1;" parent="hUOiWNm01Zd8j-rzL-XV-14" vertex="1">
          <mxGeometry y="118" width="190" height="192" as="geometry" />
        </mxCell>
        <mxCell id="hUOiWNm01Zd8j-rzL-XV-30" value="Notifications" style="swimlane;fontStyle=1;align=center;verticalAlign=top;childLayout=stackLayout;horizontal=1;startSize=26;horizontalStack=0;resizeParent=1;resizeParentMax=0;resizeLast=0;collapsible=1;marginBottom=0;whiteSpace=wrap;html=1;" parent="1" vertex="1">
          <mxGeometry x="80" y="550" width="210" height="350" as="geometry" />
        </mxCell>
        <mxCell id="hUOiWNm01Zd8j-rzL-XV-31" value="- notificationName&lt;br&gt;- notificationMessage&lt;br&gt;- notificationTime&lt;br&gt;- notificationTimeLimit&lt;br&gt;- notificationOrderETA&lt;br&gt;- notificationOrderRatingDriver&lt;br&gt;- notificationOrderRatingFood" style="text;strokeColor=none;fillColor=none;align=left;verticalAlign=top;spacingLeft=4;spacingRight=4;overflow=hidden;rotatable=0;points=[[0,0.5],[1,0.5]];portConstraint=eastwest;whiteSpace=wrap;html=1;" parent="hUOiWNm01Zd8j-rzL-XV-30" vertex="1">
          <mxGeometry y="26" width="210" height="124" as="geometry" />
        </mxCell>
        <mxCell id="hUOiWNm01Zd8j-rzL-XV-32" value="" style="line;strokeWidth=1;fillColor=none;align=left;verticalAlign=middle;spacingTop=-1;spacingLeft=3;spacingRight=3;rotatable=0;labelPosition=right;points=[];portConstraint=eastwest;strokeColor=inherit;" parent="hUOiWNm01Zd8j-rzL-XV-30" vertex="1">
          <mxGeometry y="150" width="210" height="8" as="geometry" />
        </mxCell>
        <mxCell id="hUOiWNm01Zd8j-rzL-XV-33" value="+ createNotification()&lt;br&gt;+ getNotificationName()&lt;br&gt;+ getNotificationTime()&lt;br&gt;+ getNotificationTimeLimit()&lt;br&gt;+ getNotificationOrderETA()&lt;br&gt;+ setNotification()&lt;br&gt;+ checkNotificationTimeLimit()&lt;br&gt;+ updateNotificationOrderETA()&lt;br&gt;+ rateNotificationRatingDriver()&lt;br&gt;+ rateNotificationRatingFood()&lt;br&gt;+ deleteNotification()&lt;br&gt;+ toString()" style="text;strokeColor=none;fillColor=none;align=left;verticalAlign=top;spacingLeft=4;spacingRight=4;overflow=hidden;rotatable=0;points=[[0,0.5],[1,0.5]];portConstraint=eastwest;whiteSpace=wrap;html=1;" parent="hUOiWNm01Zd8j-rzL-XV-30" vertex="1">
          <mxGeometry y="158" width="210" height="192" as="geometry" />
        </mxCell>
        <mxCell id="hUOiWNm01Zd8j-rzL-XV-34" value="Order History" style="swimlane;fontStyle=1;align=center;verticalAlign=top;childLayout=stackLayout;horizontal=1;startSize=26;horizontalStack=0;resizeParent=1;resizeParentMax=0;resizeLast=0;collapsible=1;marginBottom=0;whiteSpace=wrap;html=1;" parent="1" vertex="1">
          <mxGeometry x="620" y="80" width="210" height="310" as="geometry" />
        </mxCell>
        <mxCell id="hUOiWNm01Zd8j-rzL-XV-35" value="- orderHistoryLength&lt;br&gt;- orderHistoryContents&lt;br&gt;- orderHistoryDates&lt;br&gt;- orderHistoryTimes&lt;br&gt;- listOfOrders" style="text;strokeColor=none;fillColor=none;align=left;verticalAlign=top;spacingLeft=4;spacingRight=4;overflow=hidden;rotatable=0;points=[[0,0.5],[1,0.5]];portConstraint=eastwest;whiteSpace=wrap;html=1;" parent="hUOiWNm01Zd8j-rzL-XV-34" vertex="1">
          <mxGeometry y="26" width="210" height="84" as="geometry" />
        </mxCell>
        <mxCell id="hUOiWNm01Zd8j-rzL-XV-36" value="" style="line;strokeWidth=1;fillColor=none;align=left;verticalAlign=middle;spacingTop=-1;spacingLeft=3;spacingRight=3;rotatable=0;labelPosition=right;points=[];portConstraint=eastwest;strokeColor=inherit;" parent="hUOiWNm01Zd8j-rzL-XV-34" vertex="1">
          <mxGeometry y="110" width="210" height="8" as="geometry" />
        </mxCell>
        <mxCell id="hUOiWNm01Zd8j-rzL-XV-37" value="+ createOrderHistory()&lt;br&gt;+ getOrderHistoryOrders()&lt;br&gt;+ getOrderHistoryDates()&lt;br&gt;+ getOrderHistoryTimes()&lt;br&gt;+ setOrderHistory()&lt;br&gt;+ createListOfOrders()&lt;br&gt;+ getOrderHistory()&lt;br&gt;+ getListOfOrderLength()&lt;br&gt;+ setListOfOrders()&lt;br&gt;+ deleteOrderHistory()&lt;br&gt;+ deleteListOfOrders()&lt;br&gt;+ toString()" style="text;strokeColor=none;fillColor=none;align=left;verticalAlign=top;spacingLeft=4;spacingRight=4;overflow=hidden;rotatable=0;points=[[0,0.5],[1,0.5]];portConstraint=eastwest;whiteSpace=wrap;html=1;" parent="hUOiWNm01Zd8j-rzL-XV-34" vertex="1">
          <mxGeometry y="118" width="210" height="192" as="geometry" />
        </mxCell>
        <mxCell id="hUOiWNm01Zd8j-rzL-XV-42" value="Search Results" style="swimlane;fontStyle=1;align=center;verticalAlign=top;childLayout=stackLayout;horizontal=1;startSize=26;horizontalStack=0;resizeParent=1;resizeParentMax=0;resizeLast=0;collapsible=1;marginBottom=0;whiteSpace=wrap;html=1;" parent="1" vertex="1">
          <mxGeometry x="365" y="710" width="210" height="340" as="geometry" />
        </mxCell>
        <mxCell id="hUOiWNm01Zd8j-rzL-XV-43" value="- searchResults&lt;br&gt;- searchResultsDistance&lt;br&gt;- searchResultsDeliveryServices&lt;br&gt;- searchResultsFoods&lt;br&gt;- searchResultsDrinks&lt;br&gt;- searchResultsSort&lt;br&gt;- selectedSearchResults&lt;br&gt;- isSearchBarEmpty" style="text;strokeColor=none;fillColor=none;align=left;verticalAlign=top;spacingLeft=4;spacingRight=4;overflow=hidden;rotatable=0;points=[[0,0.5],[1,0.5]];portConstraint=eastwest;whiteSpace=wrap;html=1;" parent="hUOiWNm01Zd8j-rzL-XV-42" vertex="1">
          <mxGeometry y="26" width="210" height="134" as="geometry" />
        </mxCell>
        <mxCell id="hUOiWNm01Zd8j-rzL-XV-44" value="" style="line;strokeWidth=1;fillColor=none;align=left;verticalAlign=middle;spacingTop=-1;spacingLeft=3;spacingRight=3;rotatable=0;labelPosition=right;points=[];portConstraint=eastwest;strokeColor=inherit;" parent="hUOiWNm01Zd8j-rzL-XV-42" vertex="1">
          <mxGeometry y="160" width="210" height="8" as="geometry" />
        </mxCell>
        <mxCell id="hUOiWNm01Zd8j-rzL-XV-45" value="+ createSearchResults()&lt;br&gt;+ getSearchDistance()&lt;br&gt;+ getSearchDeliveryServices()&lt;br&gt;+ getSearchFoods()&lt;br&gt;+ getSearchDrinks()&lt;br&gt;+ setSearchResults()&lt;br&gt;+ checkSearchBarEmpty()&lt;br&gt;+ sortSearchResults()&lt;br&gt;+ selectSearchResults()&lt;br&gt;+ deleteSearchResults()&lt;br&gt;+ toString()" style="text;strokeColor=none;fillColor=none;align=left;verticalAlign=top;spacingLeft=4;spacingRight=4;overflow=hidden;rotatable=0;points=[[0,0.5],[1,0.5]];portConstraint=eastwest;whiteSpace=wrap;html=1;" parent="hUOiWNm01Zd8j-rzL-XV-42" vertex="1">
          <mxGeometry y="168" width="210" height="172" as="geometry" />
        </mxCell>
      </root>
    </mxGraphModel>
  </diagram>
  <diagram id="iO723m7JpJFDTCtmrrDq" name="Page-2">
    <mxGraphModel dx="1004" dy="709" grid="1" gridSize="10" guides="1" tooltips="1" connect="1" arrows="1" fold="1" page="1" pageScale="1" pageWidth="850" pageHeight="1100" math="0" shadow="0">
      <root>
        <mxCell id="0" />
        <mxCell id="1" parent="0" />
        <mxCell id="881ObM39c-y3OabPZlUi-1" value="" style="ellipse;whiteSpace=wrap;html=1;aspect=fixed;fillColor=#1C8AEB;" vertex="1" parent="1">
          <mxGeometry x="23" y="270" width="70" height="70" as="geometry" />
        </mxCell>
        <mxCell id="881ObM39c-y3OabPZlUi-2" value="" style="endArrow=classic;html=1;rounded=0;exitX=1;exitY=0.5;exitDx=0;exitDy=0;entryX=-0.022;entryY=0.312;entryDx=0;entryDy=0;entryPerimeter=0;" edge="1" parent="1" source="881ObM39c-y3OabPZlUi-1" target="i7DODh0-ZP-yfXFCSAwM-2">
          <mxGeometry width="50" height="50" relative="1" as="geometry">
            <mxPoint x="313" y="370" as="sourcePoint" />
            <mxPoint x="233" y="305" as="targetPoint" />
          </mxGeometry>
        </mxCell>
        <mxCell id="881ObM39c-y3OabPZlUi-3" value="createOrder()" style="edgeLabel;html=1;align=center;verticalAlign=middle;resizable=0;points=[];" vertex="1" connectable="0" parent="881ObM39c-y3OabPZlUi-2">
          <mxGeometry x="-0.0947" relative="1" as="geometry">
            <mxPoint as="offset" />
          </mxGeometry>
        </mxCell>
        <mxCell id="881ObM39c-y3OabPZlUi-5" value="&lt;font style=&quot;font-size: 20px;&quot;&gt;Order&lt;/font&gt;" style="text;html=1;strokeColor=none;fillColor=none;align=center;verticalAlign=middle;whiteSpace=wrap;rounded=0;" vertex="1" parent="1">
          <mxGeometry x="93" y="180" width="80" height="40" as="geometry" />
        </mxCell>
        <mxCell id="OXmGxCacmODsTlMth6yV-3" style="edgeStyle=orthogonalEdgeStyle;rounded=0;orthogonalLoop=1;jettySize=auto;html=1;entryX=0.5;entryY=0;entryDx=0;entryDy=0;exitX=0.5;exitY=0;exitDx=0;exitDy=0;" edge="1" parent="1" source="i7DODh0-ZP-yfXFCSAwM-1" target="OXmGxCacmODsTlMth6yV-1">
          <mxGeometry relative="1" as="geometry">
            <Array as="points">
              <mxPoint x="303" y="210" />
              <mxPoint x="890" y="210" />
            </Array>
          </mxGeometry>
        </mxCell>
        <mxCell id="OXmGxCacmODsTlMth6yV-5" value="[previousOrder] / getOrderContents(previousOrder)" style="edgeLabel;html=1;align=center;verticalAlign=middle;resizable=0;points=[];" vertex="1" connectable="0" parent="OXmGxCacmODsTlMth6yV-3">
          <mxGeometry x="-0.3227" y="1" relative="1" as="geometry">
            <mxPoint x="68" as="offset" />
          </mxGeometry>
        </mxCell>
        <mxCell id="i7DODh0-ZP-yfXFCSAwM-1" value="GettingOrderContents" style="swimlane;fontStyle=0;childLayout=stackLayout;horizontal=1;startSize=26;fillColor=none;horizontalStack=0;resizeParent=1;resizeParentMax=0;resizeLast=0;collapsible=1;marginBottom=0;whiteSpace=wrap;html=1;" vertex="1" parent="1">
          <mxGeometry x="223" y="250" width="160" height="120" as="geometry" />
        </mxCell>
        <mxCell id="i7DODh0-ZP-yfXFCSAwM-2" value="Do / Check if Order is Previous Order or Search Results&lt;br&gt;Do / Press View Order Button" style="text;strokeColor=none;fillColor=none;align=left;verticalAlign=top;spacingLeft=4;spacingRight=4;overflow=hidden;rotatable=0;points=[[0,0.5],[1,0.5]];portConstraint=eastwest;whiteSpace=wrap;html=1;" vertex="1" parent="i7DODh0-ZP-yfXFCSAwM-1">
          <mxGeometry y="26" width="160" height="94" as="geometry" />
        </mxCell>
        <mxCell id="OXmGxCacmODsTlMth6yV-1" value="ViewingOrder" style="swimlane;fontStyle=0;childLayout=stackLayout;horizontal=1;startSize=26;fillColor=none;horizontalStack=0;resizeParent=1;resizeParentMax=0;resizeLast=0;collapsible=1;marginBottom=0;whiteSpace=wrap;html=1;" vertex="1" parent="1">
          <mxGeometry x="810" y="245" width="160" height="120" as="geometry" />
        </mxCell>
        <mxCell id="OXmGxCacmODsTlMth6yV-2" value="Do / Check if Order is Previous Order or Search Results" style="text;strokeColor=none;fillColor=none;align=left;verticalAlign=top;spacingLeft=4;spacingRight=4;overflow=hidden;rotatable=0;points=[[0,0.5],[1,0.5]];portConstraint=eastwest;whiteSpace=wrap;html=1;" vertex="1" parent="OXmGxCacmODsTlMth6yV-1">
          <mxGeometry y="26" width="160" height="94" as="geometry" />
        </mxCell>
        <mxCell id="OXmGxCacmODsTlMth6yV-4" style="edgeStyle=orthogonalEdgeStyle;rounded=0;orthogonalLoop=1;jettySize=auto;html=1;entryX=0.49;entryY=0.997;entryDx=0;entryDy=0;entryPerimeter=0;" edge="1" parent="1" target="OXmGxCacmODsTlMth6yV-2">
          <mxGeometry relative="1" as="geometry">
            <mxPoint x="283" y="370" as="sourcePoint" />
            <Array as="points">
              <mxPoint x="283" y="420" />
              <mxPoint x="888" y="420" />
            </Array>
          </mxGeometry>
        </mxCell>
        <mxCell id="LRZMYISW_rccMUsVP08w-2" value="[searchResults] / getOrderContents(searchResults)" style="edgeLabel;html=1;align=center;verticalAlign=middle;resizable=0;points=[];" vertex="1" connectable="0" parent="OXmGxCacmODsTlMth6yV-4">
          <mxGeometry x="-0.4969" y="-2" relative="1" as="geometry">
            <mxPoint x="157" as="offset" />
          </mxGeometry>
        </mxCell>
        <mxCell id="0qLKzErZtaGbrd1YiENd-1" value="BeingEdited" style="swimlane;fontStyle=0;childLayout=stackLayout;horizontal=1;startSize=26;fillColor=none;horizontalStack=0;resizeParent=1;resizeParentMax=0;resizeLast=0;collapsible=1;marginBottom=0;whiteSpace=wrap;html=1;" vertex="1" parent="1">
          <mxGeometry x="440" y="250" width="160" height="120" as="geometry" />
        </mxCell>
        <mxCell id="0qLKzErZtaGbrd1YiENd-2" value="Do / Add or Delete Order contents&lt;br&gt;Do / Save Order Button pressed" style="text;strokeColor=none;fillColor=none;align=left;verticalAlign=top;spacingLeft=4;spacingRight=4;overflow=hidden;rotatable=0;points=[[0,0.5],[1,0.5]];portConstraint=eastwest;whiteSpace=wrap;html=1;" vertex="1" parent="0qLKzErZtaGbrd1YiENd-1">
          <mxGeometry y="26" width="160" height="94" as="geometry" />
        </mxCell>
        <mxCell id="0qLKzErZtaGbrd1YiENd-3" style="edgeStyle=orthogonalEdgeStyle;rounded=0;orthogonalLoop=1;jettySize=auto;html=1;entryX=1.022;entryY=0.112;entryDx=0;entryDy=0;entryPerimeter=0;" edge="1" parent="1" source="OXmGxCacmODsTlMth6yV-2" target="0qLKzErZtaGbrd1YiENd-2">
          <mxGeometry relative="1" as="geometry">
            <Array as="points">
              <mxPoint x="760" y="287" />
              <mxPoint x="760" y="287" />
            </Array>
          </mxGeometry>
        </mxCell>
        <mxCell id="0qLKzErZtaGbrd1YiENd-4" value="editOrder()" style="edgeLabel;html=1;align=center;verticalAlign=middle;resizable=0;points=[];" vertex="1" connectable="0" parent="0qLKzErZtaGbrd1YiENd-3">
          <mxGeometry x="0.6612" y="1" relative="1" as="geometry">
            <mxPoint x="62" as="offset" />
          </mxGeometry>
        </mxCell>
        <mxCell id="0qLKzErZtaGbrd1YiENd-5" style="edgeStyle=orthogonalEdgeStyle;rounded=0;orthogonalLoop=1;jettySize=auto;html=1;" edge="1" parent="1" source="0qLKzErZtaGbrd1YiENd-2">
          <mxGeometry relative="1" as="geometry">
            <mxPoint x="810" y="340" as="targetPoint" />
            <Array as="points">
              <mxPoint x="807" y="340" />
            </Array>
          </mxGeometry>
        </mxCell>
      </root>
    </mxGraphModel>
  </diagram>
</mxfile>
